<svg width="1200" height="1200" viewBox="0 0 1200 1200" xmlns="http://www.w3.org/2000/svg" version="1.1" xmlns:xlink="http://www.w3.org/1999/xlink">
    <g id="aircraft" transform="scale(100, -100) translate(1, -9)">
        <path d="
m2,3
    c4,0 5,-3 6,-3
    c1,0 -0.5,3 0,3
    h1
    c2.5,0 3,3 3,5
    c-2,0 -1,-2 -4,-2
    v1
    c0,0 0,1 -2,-1
    h-4
    c-1.5,0 -2,-0.5 -2,-2
    c0,-1 1,-1 2,-1
    z
m-1,1 v1 h1 v-1 h-1 z
m2,0 v1 h1 v-1 h-1 z
m2,0 v1 h1 v-1 h-1 z
m2,0 v1 h1 v-1 h-1 z
m2,0 v1 h1 v-1 h-1 z
" />
    </g>
</svg>